<svg xmlns="http://www.w3.org/2000/svg" viewBox="0 0 64 64">
  <defs>
    <linearGradient id="grad" x1="0%" y1="0%" x2="100%" y2="100%">
      <stop offset="0%" style="stop-color:#6366f1;stop-opacity:1" />
      <stop offset="100%" style="stop-color:#4f46e5;stop-opacity:1" />
    </linearGradient>
  </defs>

  <rect x="0" y="0" width="64" height="64" rx="16" fill="url(#grad)" />

  <g transform="translate(16, 16) scale(1.33)">
    <path 
      d="M2 9a3 3 0 0 1 0 6v2a2 2 0 0 0 2 2h16a2 2 0 0 0 2-2v-2a3 3 0 0 1 0-6V7a2 2 0 0 0-2-2H4a2 2 0 0 0-2 2Z" 
      fill="none" 
      stroke="white" 
      stroke-width="2.5" 
      stroke-linecap="round" 
      stroke-linejoin="round"
    />
    <path d="M13 5v2" stroke="white" stroke-width="2.5" stroke-linecap="round" />
    <path d="M13 17v2" stroke="white" stroke-width="2.5" stroke-linecap="round" />
  </g>
</svg>